<svg width="48" height="48" viewBox="0 0 48 48" fill="none" xmlns="http://www.w3.org/2000/svg">
<path d="M47.052 24.5528C47.052 22.9214 46.9198 21.2811 46.6376 19.6761H24V28.9181H36.9635C36.4255 31.8988 34.6971 34.5356 32.1661 36.2111V42.2078H39.9001C44.4417 38.0278 47.052 31.8547 47.052 24.5528Z" fill="#4285F4"/>
<path d="M24.0002 48.0016C30.4731 48.0016 35.9319 45.8764 39.9091 42.2078L32.1751 36.2111C30.0234 37.675 27.2455 38.5039 24.009 38.5039C17.7478 38.5039 12.4389 34.2798 10.5341 28.6006H2.55322V34.7825C6.62745 42.8868 14.9258 48.0016 24.0002 48.0016V48.0016Z" fill="#34A853"/>
<path d="M10.5251 28.6006C9.51975 25.6199 9.51975 22.3922 10.5251 19.4115V13.2296H2.553C-0.851001 20.0112 -0.851001 28.0009 2.553 34.7825L10.5251 28.6006V28.6006Z" fill="#FBBC04"/>
<path d="M24.0002 9.49932C27.4219 9.44641 30.7289 10.7339 33.2069 13.0973L40.059 6.24523C35.7202 2.17101 29.9616 -0.068932 24.0002 0.00161733C14.9258 0.00161733 6.62745 5.11644 2.55322 13.2296L10.5253 19.4115C12.4213 13.7235 17.739 9.49932 24.0002 9.49932V9.49932Z" fill="#EA4335"/>
</svg>
