<svg width="113" height="37" viewBox="0 0 113 37" fill="none" xmlns="http://www.w3.org/2000/svg">
<path d="M48.1008 19.4714C48.1008 24.7947 43.9364 28.7173 38.8258 28.7173C33.7152 28.7173 29.5508 24.7947 29.5508 19.4714C29.5508 14.1107 33.7152 10.2256 38.8258 10.2256C43.9364 10.2256 48.1008 14.1107 48.1008 19.4714ZM44.0407 19.4714C44.0407 16.1449 41.6271 13.8689 38.8258 13.8689C36.0245 13.8689 33.6109 16.1449 33.6109 19.4714C33.6109 22.7646 36.0245 25.0739 38.8258 25.0739C41.6271 25.0739 44.0407 22.7604 44.0407 19.4714Z" fill="#EA4335"/>
<path d="M68.1106 19.4714C68.1106 24.7947 63.9462 28.7173 58.8356 28.7173C53.7249 28.7173 49.5605 24.7947 49.5605 19.4714C49.5605 14.1148 53.7249 10.2256 58.8356 10.2256C63.9462 10.2256 68.1106 14.1107 68.1106 19.4714ZM64.0504 19.4714C64.0504 16.1449 61.6368 13.8689 58.8356 13.8689C56.0343 13.8689 53.6207 16.1449 53.6207 19.4714C53.6207 22.7646 56.0343 25.0739 58.8356 25.0739C61.6368 25.0739 64.0504 22.7604 64.0504 19.4714Z" fill="#FBBC05"/>
<path d="M87.2852 10.7842V27.3833C87.2852 34.2114 83.2584 37.0002 78.4979 37.0002C74.0167 37.0002 71.3197 34.003 70.3025 31.5519L73.8375 30.0804C74.4669 31.5852 76.0093 33.361 78.4937 33.361C81.541 33.361 83.4293 31.481 83.4293 27.9419V26.6121H83.2876C82.3788 27.7335 80.628 28.7131 78.4187 28.7131C73.7958 28.7131 69.5605 24.6863 69.5605 19.5048C69.5605 14.2858 73.7958 10.2256 78.4187 10.2256C80.6239 10.2256 82.3747 11.2052 83.2876 12.2932H83.4293V10.7883H87.2852V10.7842ZM83.7169 19.5048C83.7169 16.2491 81.5451 13.8689 78.7814 13.8689C75.9801 13.8689 73.6332 16.2491 73.6332 19.5048C73.6332 22.7271 75.9801 25.074 78.7814 25.074C81.5451 25.074 83.7169 22.7271 83.7169 19.5048Z" fill="#4285F4"/>
<path d="M93.6418 1.05487V28.1504H89.6816V1.05487H93.6418Z" fill="#34A853"/>
<path d="M109.075 22.5145L112.226 24.6154C111.209 26.1203 108.758 28.7131 104.523 28.7131C99.2703 28.7131 95.3477 24.6529 95.3477 19.4673C95.3477 13.969 99.3036 10.2214 104.068 10.2214C108.866 10.2214 111.213 14.0398 111.98 16.1033L112.401 17.1537L100.041 22.2727C100.988 24.1277 102.459 25.074 104.523 25.074C106.59 25.074 108.024 24.0568 109.075 22.5145ZM99.3745 19.188L107.637 15.7573C107.182 14.6026 105.815 13.798 104.206 13.798C102.142 13.798 99.2703 15.6197 99.3745 19.188V19.188Z" fill="#EA4335"/>
<path d="M14.5607 17.066V13.1434H27.7792C27.9084 13.8271 27.9751 14.6358 27.9751 15.5112C27.9751 18.4542 27.1706 22.0933 24.5778 24.6861C22.0558 27.3123 18.8335 28.713 14.5649 28.713C6.653 28.713 0 22.2684 0 14.3565C0 6.44457 6.653 0 14.5649 0C18.9419 0 22.06 1.71744 24.4027 3.95595L21.6348 6.72387C19.9548 5.14816 17.6788 3.9226 14.5607 3.9226C8.78313 3.9226 4.26442 8.57887 4.26442 14.3565C4.26442 20.1341 8.78313 24.7904 14.5607 24.7904C18.3083 24.7904 20.4426 23.2855 21.8098 21.9182C22.9187 20.8094 23.6482 19.2253 23.9358 17.0619L14.5607 17.066V17.066Z" fill="#4285F4"/>
</svg>
