<svg width="241" height="64" viewBox="0 0 241 64" fill="none" xmlns="http://www.w3.org/2000/svg">
<path d="M34.6889 1.00543C34.85 1.00651 35.0111 1.00759 35.177 1.00871C40.9559 1.05415 46.3372 2.49139 51.2594 5.56171C51.3855 5.63901 51.5116 5.7163 51.6415 5.79594C52.3924 6.28353 52.7953 6.68196 53.1188 7.54555C53.3748 8.7928 52.391 9.84689 51.7369 10.8397C51.385 11.3615 51.0278 11.8792 50.6688 12.3961C50.5488 12.5723 50.4287 12.7484 50.3051 12.9299C48.8833 14.9782 48.8833 14.9782 47.8318 15.3596C46.4812 15.4034 45.537 14.7571 44.4186 14.0891C42.4747 12.9308 40.4493 12.0724 38.2437 11.5568C38.0237 11.4981 38.0237 11.4981 37.7993 11.4383C36.6717 11.1779 35.5349 11.1669 34.3827 11.1535C34.1406 11.1489 34.1406 11.1489 33.8936 11.1441C32.0746 11.1461 30.407 11.639 28.9686 12.7776C28.1538 13.761 27.8557 14.6927 27.8687 15.9578C27.9917 17.1464 28.5068 18.1861 29.3186 19.0562C29.7103 19.3144 30.0713 19.5266 30.4889 19.732C30.6085 19.7912 30.7281 19.8504 30.8514 19.9114C32.4778 20.6716 34.2228 21.0773 35.9544 21.5284C36.763 21.744 37.5634 21.9845 38.364 22.2281C39.3238 22.519 40.2844 22.8013 41.2515 23.0674C46.095 24.449 51.2029 26.4687 53.9124 30.9735C55.7685 34.3424 56.0124 38.9721 55.0841 42.681C54.3175 44.8783 53.3349 46.8354 51.7188 48.5303C51.6118 48.6524 51.5049 48.7744 51.3947 48.9002C49.9743 50.4453 48.0127 51.5042 46.1187 52.3672C45.931 52.4571 45.7433 52.547 45.55 52.6397C42.7978 53.7728 39.971 53.9989 37.0298 53.9918C36.5522 53.9913 36.0747 53.9954 35.5971 53.9998C32.8588 54.0098 30.2783 53.6328 27.6342 52.9231C27.4647 52.878 27.2951 52.8329 27.1205 52.7864C25.1225 52.2418 23.241 51.5605 21.3998 50.6122C21.2912 50.5571 21.1825 50.5019 21.0706 50.4451C20.3919 50.0793 19.9381 49.7004 19.5185 49.0535C19.5185 48.8808 19.5185 48.7082 19.5185 48.5303C19.6969 48.5268 19.8753 48.5234 20.0591 48.5198C20.72 48.5066 21.3807 48.4911 22.0414 48.4749C22.3276 48.4683 22.6138 48.4622 22.9 48.4567C23.311 48.4488 23.7219 48.4386 24.1328 48.4281C24.2611 48.4261 24.3895 48.4241 24.5217 48.422C25.2498 48.4224 25.2498 48.4224 25.8186 48.0071C25.8741 47.674 25.8741 47.674 25.8623 47.3095C25.8632 47.1872 25.8641 47.0649 25.865 46.9389C25.846 46.5694 25.846 46.5694 25.4686 46.263C24.9136 46.211 24.9136 46.211 24.2512 46.2213C24.1259 46.2209 24.0007 46.2206 23.8716 46.2202C23.5993 46.2196 23.327 46.2197 23.0546 46.2205C22.6236 46.2215 22.1927 46.2199 21.7616 46.2175C20.5361 46.211 19.3105 46.2078 18.0849 46.2098C17.3356 46.2108 16.5863 46.2076 15.837 46.2018C15.5514 46.2004 15.2657 46.2006 14.9801 46.2025C14.5803 46.205 14.1809 46.2021 13.7811 46.1981C13.44 46.198 13.44 46.198 13.0919 46.1978C12.5184 46.0886 12.5184 46.0886 12.0957 45.6792C11.7548 45.1104 11.6933 44.8213 11.8184 44.1702C12.203 43.715 12.5199 43.4987 13.1153 43.4091C13.651 43.3836 14.1827 43.3807 14.719 43.3847C15.013 43.3823 15.013 43.3823 15.313 43.3797C15.9383 43.3747 16.5635 43.3742 17.1888 43.3745C17.816 43.3739 18.4431 43.3722 19.0702 43.3674C19.4603 43.3644 19.8504 43.364 20.2405 43.3662C20.4164 43.365 20.5922 43.3638 20.7734 43.3625C20.9285 43.3627 21.0837 43.3629 21.2435 43.363C21.3673 43.3416 21.491 43.3202 21.6185 43.2982C22.0234 42.6929 22.0578 42.4404 21.9685 41.7286C21.6556 41.3594 21.3912 41.2218 20.9109 41.1575C20.4513 41.1365 19.9943 41.133 19.5342 41.1345C19.3656 41.1326 19.1969 41.1307 19.0231 41.1288C18.3019 41.1208 17.5807 41.1188 16.8594 41.1162C16.3328 41.1135 15.8062 41.1077 15.2795 41.1018C15.0342 41.1026 15.0342 41.1026 14.784 41.1034C14.6321 41.1016 14.4803 41.0999 14.3238 41.0981C14.1235 41.0975 14.1235 41.0975 13.9192 41.097C13.4751 41.0134 13.3194 40.8577 13.0435 40.5077C12.9737 40.1698 12.9737 40.1698 12.9778 39.8101C12.9765 39.6914 12.9751 39.5727 12.9737 39.4504C13.0655 39.0058 13.2135 38.8702 13.5685 38.5893C13.9508 38.5182 13.9508 38.5182 14.4007 38.5105C14.5697 38.5066 14.7386 38.5027 14.9127 38.4987C15.0953 38.4976 15.2779 38.4965 15.4661 38.4953C15.655 38.4931 15.8439 38.491 16.0386 38.4888C16.4393 38.4854 16.84 38.4834 17.2408 38.4828C17.849 38.4803 18.4565 38.4686 19.0646 38.4565C22.7182 38.4202 22.7182 38.4202 24.2435 39.8101C24.4684 39.9651 24.6962 40.116 24.9271 40.2618C25.03 40.3294 25.1329 40.3971 25.239 40.4667C28.6919 42.6936 32.4836 43.8851 36.603 43.9086C36.8797 43.9103 36.8797 43.9103 37.1619 43.912C39.1425 43.8796 41.4269 43.5005 42.9482 42.1292C43.4603 41.562 43.7409 41.045 44.0187 40.3333C43.722 40.3402 43.722 40.3402 43.4194 40.3472C42.6849 40.363 41.9505 40.373 41.216 40.3812C40.8982 40.3856 40.5804 40.3916 40.2627 40.3991C39.8056 40.4097 39.3488 40.4147 38.8917 40.4185C38.7499 40.423 38.608 40.4275 38.4619 40.4321C37.768 40.4325 37.4458 40.4049 36.9289 39.9254C36.6112 39.3589 36.5595 39.0542 36.6686 38.4149C36.9571 37.9938 37.1841 37.7529 37.6978 37.6538C38.1145 37.6283 38.5262 37.6254 38.9437 37.6294C39.1728 37.6269 39.1728 37.6269 39.4065 37.6244C39.8939 37.6194 40.3812 37.6189 40.8687 37.6192C41.3561 37.6186 41.8435 37.6169 42.3309 37.6121C42.634 37.6092 42.937 37.6087 43.2401 37.6109C44.0689 37.6063 44.0689 37.6063 44.8172 37.2772C44.9417 37.1498 44.9417 37.1498 45.0687 37.0197C45.0225 36.4211 45.0225 36.4211 44.8937 35.7989C44.26 35.3778 43.7991 35.4013 43.0672 35.4055C42.869 35.4046 42.869 35.4046 42.6669 35.4036C42.3802 35.4024 42.0934 35.402 41.8067 35.4022C41.3528 35.4024 40.8991 35.4001 40.4453 35.3971C39.155 35.3891 37.8648 35.3848 36.5745 35.3836C35.7853 35.3828 34.9961 35.3785 34.2069 35.3722C33.9061 35.3705 33.6053 35.3701 33.3045 35.371C32.8838 35.3723 32.4634 35.3693 32.0428 35.3653C31.9185 35.3667 31.7942 35.3682 31.6661 35.3696C31.0814 35.3599 30.766 35.3106 30.2906 34.9601C29.8972 34.4075 29.9343 34.0175 30.0186 33.3572C30.21 33.0622 30.21 33.0622 30.5436 32.834C31.0901 32.7697 31.0901 32.7697 31.757 32.7693C31.9993 32.7663 32.2417 32.7632 32.484 32.7601C32.865 32.7583 33.2459 32.7577 33.6268 32.758C33.9953 32.7574 34.3636 32.7526 34.732 32.7475C34.9523 32.7472 35.1726 32.7468 35.3995 32.7465C36.066 32.6447 36.2734 32.4973 36.6686 31.962C36.7853 31.4313 36.7853 31.4313 36.6686 30.9156C36.357 30.5513 36.095 30.4093 35.6184 30.3453C35.16 30.3256 34.7045 30.3243 34.2456 30.328C34.0708 30.3274 33.8961 30.3267 33.716 30.326C33.3366 30.3249 32.9572 30.325 32.5778 30.3261C31.9777 30.3277 31.3777 30.3259 30.7775 30.3232C29.0714 30.3162 27.3652 30.316 25.659 30.3164C24.6154 30.3164 23.5719 30.313 22.5283 30.3078C21.9365 30.3059 21.3448 30.308 20.7531 30.3102C20.3909 30.3086 20.0287 30.3069 19.6665 30.3049C19.5016 30.3066 19.3366 30.3083 19.1667 30.31C18.0557 30.2978 18.0557 30.2978 17.4913 29.8964C17.1511 29.38 17.1422 29.0798 17.2435 28.4739C17.6131 27.996 17.8191 27.7987 18.4216 27.6905C18.6045 27.6911 18.7873 27.6916 18.9757 27.6922C19.2876 27.6904 19.2876 27.6904 19.6058 27.6886C19.9416 27.6915 19.9416 27.6915 20.2841 27.6946C20.6361 27.6927 20.9882 27.6908 21.3402 27.6887C22.0831 27.6854 22.826 27.6882 23.5689 27.69C24.1809 27.6912 24.7928 27.6911 25.4047 27.6874C25.8636 27.6849 26.3225 27.6856 26.7813 27.6896C27.0932 27.6879 27.0932 27.6879 27.4113 27.686C27.5942 27.6866 27.7771 27.6872 27.9655 27.6877C28.5701 27.5792 28.781 27.3919 29.1436 26.9043C29.1592 26.2718 29.1592 26.2718 28.9686 25.6835C28.3415 25.2668 27.8952 25.2859 27.1714 25.2901C27.0424 25.2895 26.9135 25.2889 26.7806 25.2882C26.5007 25.287 26.2209 25.2866 25.941 25.2868C25.4982 25.287 25.0556 25.2847 24.6128 25.2818C23.3541 25.2737 22.0954 25.2694 20.8367 25.2682C20.0667 25.2674 19.2968 25.2632 18.5269 25.2569C18.2333 25.2551 17.9397 25.2547 17.6461 25.2557C17.2358 25.2569 16.8258 25.2539 16.4157 25.2499C16.294 25.2514 16.1723 25.2528 16.047 25.2543C15.4933 25.2447 15.2142 25.2277 14.8062 24.8386C14.548 24.3217 14.5351 23.9863 14.6185 23.4162C14.8601 23.0398 14.8601 23.0398 15.3185 22.7186C15.9217 22.6174 16.519 22.6298 17.1293 22.6369C17.394 22.635 17.394 22.635 17.664 22.6331C18.2275 22.6293 18.7909 22.6298 19.3544 22.6314C20.0967 22.6335 20.8387 22.6312 21.5809 22.626C21.8377 22.6289 21.8377 22.6289 22.0997 22.632C22.2585 22.6308 22.4174 22.6296 22.5811 22.6284C22.7208 22.6289 22.8605 22.6295 23.0045 22.63C23.3966 22.5712 23.3966 22.5712 23.6823 22.2304C23.9983 21.6564 23.8709 21.2446 23.7185 20.6258C23.1877 20.3613 22.637 20.4278 22.0547 20.4294C21.9193 20.4291 21.7838 20.4288 21.6442 20.4284C21.3495 20.4277 21.0548 20.4274 20.7602 20.4273C20.1341 20.4267 19.5082 20.423 18.8822 20.4194C17.7159 20.4128 16.5497 20.4073 15.3835 20.4077C14.5729 20.4078 13.7624 20.4038 12.9518 20.3969C12.6427 20.3951 12.3336 20.3948 12.0245 20.3961C11.592 20.3978 11.1599 20.3941 10.7275 20.3892C10.5997 20.391 10.4718 20.3928 10.3401 20.3946C9.68574 20.3812 9.41898 20.3252 8.93895 19.8673C8.60801 19.3017 8.55835 19.003 8.66842 18.3585C9.01955 17.9187 9.22988 17.6896 9.78908 17.5739C10.023 17.574 10.023 17.574 10.2616 17.574C10.4391 17.5723 10.6166 17.5705 10.7995 17.5687C10.99 17.5702 11.1806 17.5716 11.3768 17.5731C11.5731 17.5714 11.7694 17.5698 11.9716 17.5681C12.5987 17.5631 13.2257 17.5625 13.8528 17.5628C14.4812 17.5622 15.1095 17.5606 15.7378 17.5557C16.1289 17.5528 16.52 17.5523 16.911 17.5545C17.0874 17.5533 17.2638 17.5521 17.4456 17.5509C17.6791 17.5511 17.6791 17.5511 17.9173 17.5514C18.0414 17.53 18.1656 17.5086 18.2935 17.4865C18.6987 16.8809 18.688 16.6272 18.6435 15.9169C18.5858 15.7442 18.528 15.5716 18.4685 15.3937C18.3599 15.3911 18.2513 15.3886 18.1395 15.386C17.6475 15.373 17.1557 15.3561 16.6638 15.3392C16.4929 15.3353 16.322 15.3313 16.146 15.3273C15.9819 15.3211 15.8177 15.3149 15.6487 15.3085C15.4974 15.304 15.3462 15.2994 15.1904 15.2947C14.7177 15.2049 14.5583 15.0724 14.2685 14.6961C14.1987 14.3582 14.1987 14.3582 14.2028 13.9985C14.2015 13.8798 14.2001 13.7611 14.1987 13.6388C14.2896 13.1985 14.447 13.0598 14.7935 12.7776C15.3136 12.7261 15.799 12.7049 16.3193 12.7068C16.4688 12.7049 16.6183 12.703 16.7723 12.7011C17.4121 12.6931 18.0519 12.6911 18.6918 12.6885C19.1588 12.6858 19.6257 12.68 20.0927 12.6741C20.2377 12.6746 20.3826 12.6751 20.5319 12.6757C21.2731 12.6862 21.2731 12.6862 21.92 12.3763C22.2856 11.8918 22.1967 11.4421 22.1435 10.8592C21.8363 10.4821 21.8363 10.4821 21.465 10.4677C21.3316 10.468 21.1983 10.4683 21.0608 10.4686C20.9095 10.468 20.7582 10.4673 20.6023 10.4667C20.4384 10.4674 20.2746 10.4681 20.1057 10.4688C19.7599 10.4662 19.4141 10.4633 19.0684 10.4603C18.5222 10.4575 17.9762 10.4559 17.4301 10.4571C16.9036 10.4576 16.3774 10.4527 15.851 10.447C15.6882 10.4488 15.5254 10.4506 15.3576 10.4524C14.5606 10.4405 14.2043 10.4199 13.5523 9.92643C13.2185 9.46398 13.2185 9.46398 13.12 8.92987C13.2428 8.29102 13.4069 8.11678 13.9185 7.71995C14.4442 7.63179 14.4442 7.63179 15.0659 7.63028C15.1795 7.62904 15.2932 7.6278 15.4102 7.62652C15.7846 7.62316 16.1588 7.6246 16.5332 7.62594C16.7939 7.62421 17.0545 7.62213 17.3151 7.61971C18.0005 7.61406 18.6858 7.61225 19.3712 7.61154C20.4689 7.61001 21.5665 7.60383 22.6641 7.59546C23.0476 7.59326 23.4309 7.5934 23.8144 7.59376C24.0492 7.59262 24.2839 7.5914 24.5187 7.59009C24.8263 7.58976 24.8263 7.58976 25.14 7.58942C25.6782 7.58299 25.6782 7.58299 26.1686 7.19674C26.2453 6.86458 26.2453 6.86458 26.2233 6.49913C26.2226 6.37683 26.2219 6.25453 26.2212 6.12852C26.1947 5.75937 26.1947 5.75937 25.8186 5.45271C25.4546 5.39992 25.4546 5.39992 25.0321 5.40817C24.8692 5.40696 24.7062 5.40575 24.5383 5.4045C24.3619 5.40467 24.1854 5.40484 24.0036 5.40502C23.6323 5.40148 23.261 5.39785 22.8897 5.39412C22.3024 5.39018 21.7152 5.38731 21.128 5.38629C20.5625 5.38463 19.9972 5.37875 19.4317 5.37232C19.2556 5.3732 19.0795 5.37408 18.898 5.37499C18.6528 5.37152 18.6528 5.37152 18.4026 5.36798C18.1867 5.36723 18.1867 5.36723 17.9665 5.36647C17.5935 5.27831 17.5935 5.27831 17.2845 4.96273C16.9702 4.40682 17 3.9858 17.0685 3.35987C17.3403 2.99336 17.4934 2.8547 17.9469 2.77299C18.1494 2.77403 18.1494 2.77403 18.356 2.77509C18.5866 2.77414 18.5866 2.77414 18.822 2.77316C19.0713 2.77559 19.0713 2.77559 19.3257 2.77808C19.6805 2.77589 20.0353 2.77362 20.3901 2.77126C20.9472 2.77058 21.5043 2.77124 22.0614 2.77382C24.7822 2.79964 24.7822 2.79964 27.3623 2.02656C29.6907 1.03738 32.1975 0.975508 34.6889 1.00543Z" fill="white"/>
<path d="M2.62683 17.7125C2.83162 17.7118 2.83162 17.7118 3.04055 17.711C3.32898 17.7107 3.61742 17.7116 3.90584 17.7138C4.34743 17.7166 4.78873 17.7138 5.23031 17.7105C5.51061 17.7109 5.7909 17.7115 6.0712 17.7125C6.2033 17.7115 6.3354 17.7104 6.4715 17.7094C7.38362 17.7215 7.38362 17.7215 7.82024 18.025C8.0498 18.3685 8.0824 18.5869 8.0832 18.9951C8.08664 19.1131 8.09009 19.2311 8.09365 19.3527C8.00517 19.6886 8.00517 19.6886 7.72863 19.9645C7.13447 20.2965 6.58813 20.2897 5.92072 20.2899C5.78882 20.2912 5.65693 20.2925 5.52104 20.2939C5.24283 20.2958 4.9646 20.2963 4.68638 20.2955C4.26113 20.2953 3.83646 20.3025 3.41129 20.3102C3.14052 20.3111 2.86974 20.3116 2.59897 20.3116C2.40889 20.3158 2.40889 20.3158 2.21497 20.3202C1.54785 20.3111 1.27735 20.2539 0.784825 19.8027C0.514515 19.3418 0.514515 19.3418 0.525662 18.8001C0.895997 17.6962 1.52489 17.7038 2.62683 17.7125Z" fill="white"/>
<path d="M6.90977 7.53686C7.11169 7.53611 7.11169 7.53611 7.31769 7.53535C7.60209 7.53499 7.88649 7.53595 8.17088 7.53813C8.60628 7.54093 9.04141 7.53816 9.47681 7.53482C9.75318 7.53517 10.0296 7.53583 10.3059 7.53686C10.4362 7.5358 10.5664 7.53475 10.7006 7.53366C11.5938 7.54575 11.5938 7.54575 12.0305 7.83403C12.3465 8.34341 12.2846 8.76722 12.2128 9.34552C11.9412 9.72635 11.9412 9.72635 11.5094 10.0413C11.0323 10.1105 10.6278 10.139 10.1514 10.1337C10.0209 10.1343 9.89044 10.135 9.75602 10.1357C9.48096 10.1362 9.20588 10.1349 8.93083 10.132C8.50964 10.1282 8.08897 10.1319 7.66779 10.1364C7.40023 10.1359 7.13267 10.135 6.86511 10.1337C6.73926 10.1351 6.61341 10.1365 6.48374 10.1379C5.91894 10.1274 5.6097 10.114 5.18734 9.72635C4.91721 9.16871 4.93572 8.73666 5.00286 8.12797C5.44041 7.42009 6.1578 7.53076 6.90977 7.53686Z" fill="white"/>
<path d="M24.1221 32.6065C24.3974 32.6025 24.3974 32.6025 24.6783 32.5984C24.855 32.5993 25.0318 32.6002 25.2138 32.6011C25.4548 32.6023 25.4548 32.6023 25.7005 32.6034C26.2733 32.7201 26.486 32.9385 26.8443 33.3827C26.9294 33.9539 26.9206 34.279 26.6397 34.7892C26.1903 35.2302 25.9083 35.1966 25.2793 35.1992C24.9751 35.2005 24.9751 35.2005 24.6649 35.2019C24.453 35.1992 24.2412 35.1966 24.0229 35.1938C23.811 35.1965 23.5992 35.1992 23.3809 35.2019C23.0768 35.2006 23.0768 35.2006 22.7665 35.1992C22.4876 35.198 22.4876 35.198 22.203 35.1968C21.7305 35.1076 21.7305 35.1076 21.4068 34.7892C21.1221 34.2739 21.1032 33.9595 21.2015 33.3827C21.9924 32.4603 22.9876 32.5899 24.1221 32.6065Z" fill="white"/>
<path d="M33.5788 37.5608C33.7152 37.5581 33.8516 37.5554 33.9921 37.5526C34.6409 37.557 34.9931 37.5704 35.5335 37.9636C35.7757 38.346 35.7757 38.346 35.7652 38.9677C35.6081 39.5622 35.5548 39.7317 35.0998 40.091C34.7555 40.1588 34.7555 40.1588 34.3657 40.1606C34.2248 40.1612 34.0838 40.1619 33.9386 40.1626C33.7187 40.1596 33.7187 40.1596 33.4944 40.1565C33.3477 40.1585 33.2011 40.1605 33.0501 40.1626C32.9091 40.1619 32.7682 40.1612 32.623 40.1606C32.43 40.1597 32.43 40.1597 32.2332 40.1588C31.7951 40.0726 31.646 39.9344 31.382 39.5675C31.3016 38.9154 31.2699 38.5191 31.6295 37.9636C32.2625 37.4973 32.82 37.5457 33.5788 37.5608Z" fill="white"/>
<path d="M14.2226 2.57464C14.4202 2.57062 14.4202 2.57062 14.6217 2.56653C15.2704 2.57106 15.5976 2.58784 16.131 2.98005C16.4871 3.49029 16.493 3.78209 16.3913 4.39087C16.1005 4.81756 15.8736 5.04857 15.356 5.14899C14.9434 5.17606 14.5383 5.17711 14.125 5.16926C13.9835 5.17193 13.842 5.17461 13.6963 5.17737C12.6714 5.17065 12.6714 5.17065 12.2219 4.76385C11.9905 4.2504 11.9724 3.90978 12.0538 3.35302C12.6395 2.51148 13.2781 2.55545 14.2226 2.57464Z" fill="white"/>
<path d="M11.8624 22.6832C11.9984 22.679 12.1343 22.6747 12.2744 22.6703C12.9418 22.6669 13.2818 22.6757 13.8378 23.061C14.0986 23.4428 14.0986 23.4428 14.0986 24.0613C13.9206 24.6581 13.9206 24.6581 13.6424 24.9504C13.0336 25.2711 12.4596 25.2681 11.7845 25.2658C11.6579 25.2707 11.5312 25.2756 11.4007 25.2807C10.7218 25.2831 10.4209 25.2331 9.91483 24.7795C9.55346 24.1436 9.62661 23.7845 9.82652 23.0956C10.5071 22.653 11.0734 22.6845 11.8624 22.6832Z" fill="white"/>
<path d="M3.04819 7.61717C3.44184 7.80741 3.78811 7.97655 4.1029 8.26785C4.20215 9.21692 4.20215 9.21692 4.1029 9.56922C3.42939 10.0873 2.83973 10.1276 1.98249 10.1284C1.77017 10.1316 1.55785 10.1347 1.33909 10.1379C0.665798 10.0436 0.461014 9.90637 0.0598418 9.40655C-0.0711603 8.77347 0.00494648 8.51398 0.367466 7.96285C1.21548 7.44974 2.06068 7.47134 3.04819 7.61717Z" fill="white"/>
<path d="M9.03756 43.3013C9.24985 43.2994 9.46213 43.2976 9.68085 43.2957C10.3806 43.407 10.6766 43.5909 11.1621 44.1112C11.2505 44.7548 11.304 45.1639 10.931 45.7085C10.3055 46.1346 9.70224 46.1311 8.97151 46.1472C8.67216 46.1573 8.67216 46.1573 8.36675 46.1676C7.81565 46.0909 7.81565 46.0909 7.39665 45.7668C6.98138 45.1912 7.01372 44.8079 7.11113 44.1112C7.66449 43.337 8.12575 43.2933 9.03756 43.3013Z" fill="white"/>
<path d="M83.384 18.032C86.072 18.032 88.4613 18.6293 90.552 19.824C92.6427 20.976 94.264 22.704 95.416 25.008C96.6107 27.2693 97.208 30 97.208 33.2V54H88.248V34.416C88.248 31.6 87.544 29.4453 86.136 27.952C84.728 26.416 82.808 25.648 80.376 25.648C77.9013 25.648 75.9387 26.416 74.488 27.952C73.08 29.4453 72.376 31.6 72.376 34.416V54H63.416V6.64H72.376V22.96C73.528 21.424 75.064 20.2293 76.984 19.376C78.904 18.48 81.0373 18.032 83.384 18.032ZM121.473 54.576C118.059 54.576 114.987 53.8293 112.257 52.336C109.526 50.8 107.371 48.6453 105.793 45.872C104.257 43.0987 103.489 39.8987 103.489 36.272C103.489 32.6453 104.278 29.4453 105.857 26.672C107.478 23.8987 109.675 21.7653 112.449 20.272C115.222 18.736 118.315 17.968 121.729 17.968C125.142 17.968 128.235 18.736 131.009 20.272C133.782 21.7653 135.958 23.8987 137.537 26.672C139.158 29.4453 139.969 32.6453 139.969 36.272C139.969 39.8987 139.137 43.0987 137.472 45.872C135.851 48.6453 133.633 50.8 130.817 52.336C128.043 53.8293 124.929 54.576 121.473 54.576ZM121.473 46.768C123.094 46.768 124.609 46.384 126.017 45.616C127.467 44.8053 128.619 43.6107 129.473 42.032C130.326 40.4533 130.753 38.5333 130.753 36.272C130.753 32.9013 129.857 30.32 128.065 28.528C126.315 26.6933 124.161 25.776 121.601 25.776C119.041 25.776 116.886 26.6933 115.137 28.528C113.43 30.32 112.577 32.9013 112.577 36.272C112.577 39.6427 113.409 42.2453 115.073 44.08C116.779 45.872 118.913 46.768 121.473 46.768ZM167.533 54L155.501 38.896V54H146.541V6.64H155.501V33.584L167.405 18.544H179.053L163.437 36.336L179.181 54H167.533ZM181.612 36.144C181.612 32.56 182.316 29.3813 183.724 26.608C185.175 23.8347 187.116 21.7013 189.548 20.208C192.023 18.7147 194.775 17.968 197.804 17.968C200.449 17.968 202.753 18.5013 204.716 19.568C206.721 20.6347 208.321 21.9787 209.516 23.6V18.544H218.54V54H209.516V48.816C208.364 50.48 206.764 51.8667 204.716 52.976C202.711 54.0427 200.385 54.576 197.74 54.576C194.753 54.576 192.023 53.808 189.548 52.272C187.116 50.736 185.175 48.5813 183.724 45.808C182.316 42.992 181.612 39.7707 181.612 36.144ZM209.516 36.272C209.516 34.096 209.089 32.24 208.236 30.704C207.383 29.1253 206.231 27.9307 204.78 27.12C203.329 26.2667 201.772 25.84 200.108 25.84C198.444 25.84 196.908 26.2453 195.5 27.056C194.092 27.8667 192.94 29.0613 192.044 30.64C191.191 32.176 190.764 34.0107 190.764 36.144C190.764 38.2773 191.191 40.1547 192.044 41.776C192.94 43.3547 194.092 44.5707 195.5 45.424C196.951 46.2773 198.487 46.704 200.108 46.704C201.772 46.704 203.329 46.2987 204.78 45.488C206.231 44.6347 207.383 43.44 208.236 41.904C209.089 40.3253 209.516 38.448 209.516 36.272ZM231.835 14.32C230.256 14.32 228.934 13.8293 227.867 12.848C226.843 11.824 226.331 10.5653 226.331 9.072C226.331 7.57866 226.843 6.34133 227.867 5.36C228.934 4.336 230.256 3.824 231.835 3.824C233.414 3.824 234.715 4.336 235.739 5.36C236.806 6.34133 237.339 7.57866 237.339 9.072C237.339 10.5653 236.806 11.824 235.739 12.848C234.715 13.8293 233.414 14.32 231.835 14.32ZM236.251 18.544V54H227.291V18.544H236.251Z" fill="white"/>
</svg>
